<?xml version="1.0" standalone="no"?>
<!DOCTYPE svg PUBLIC "-//W3C//DTD SVG 20010904//EN"
 "http://www.w3.org/TR/2001/REC-SVG-20010904/DTD/svg10.dtd">
<svg version="1.0" xmlns="http://www.w3.org/2000/svg"
 width="700.000000pt" height="369.000000pt" viewBox="0 0 700.000000 369.000000"
 preserveAspectRatio="xMidYMid meet">

<g transform="translate(0.000000,369.000000) scale(0.100000,-0.100000)"
fill="#000000" stroke="none">
<path d="M17 3683 c-4 -3 -7 -834 -7 -1845 l0 -1838 3495 0 3495 0 0 1845 0
1845 -3488 0 c-1919 0 -3492 -3 -3495 -7z m2273 -143 c0 -5 -4 -10 -10 -10 -5
0 -10 5 -10 10 0 6 5 10 10 10 6 0 10 -4 10 -10z m1200 -15 c0 -21 5 -25 31
-25 63 0 89 -38 50 -74 -13 -12 -32 -16 -62 -14 l-44 3 -3 54 c-2 29 -1 60 2
67 9 23 26 16 26 -11z m690 -40 l0 -64 -36 -7 c-47 -9 -84 8 -84 40 0 30 16
44 60 48 27 2 36 8 38 26 7 48 22 19 22 -43z m350 34 c0 -15 7 -19 34 -19 33
0 66 -21 66 -41 0 -23 -42 -49 -80 -49 l-40 0 0 71 c0 44 4 68 10 64 6 -3 10
-15 10 -26z m470 21 c0 -5 -4 -10 -10 -10 -5 0 -10 5 -10 10 0 6 5 10 10 10 6
0 10 -4 10 -10z m70 -15 c0 -22 4 -25 38 -25 43 0 62 -14 62 -47 0 -29 -31
-45 -78 -41 l-37 3 -3 68 c-2 42 1 67 8 67 5 0 10 -11 10 -25z m-1916 -6 c36
-28 34 -62 -5 -90 -54 -38 -149 -9 -149 47 0 32 45 64 90 64 23 0 48 -8 64
-21z m-1584 -44 c0 -30 -4 -55 -10 -55 -5 0 -10 25 -10 55 0 30 5 55 10 55 6
0 10 -25 10 -55z m1820 35 c0 -5 10 -10 23 -11 l22 0 -22 -9 c-27 -11 -33 -60
-8 -60 8 0 15 -5 15 -11 0 -6 -10 -9 -22 -7 -17 2 -24 11 -26 33 -2 17 -11 36
-20 43 -15 11 -14 12 1 12 9 0 17 5 17 10 0 6 5 10 10 10 6 0 10 -4 10 -10z
m-1672 -52 c2 -29 0 -38 -12 -38 -11 0 -16 10 -16 30 0 18 -6 33 -15 36 -19 8
-45 -19 -45 -46 0 -12 -4 -18 -10 -15 -11 7 -14 58 -3 69 4 4 28 6 53 4 44 -3
45 -4 48 -40z m102 35 c-55 -10 -68 -50 -20 -60 39 -7 49 -23 15 -23 -39 0
-65 18 -65 45 0 29 24 45 65 43 27 -1 28 -1 5 -5z m168 -5 c7 -7 12 -22 12
-35 0 -40 -65 -57 -108 -27 -26 18 -28 42 -4 60 21 17 84 18 100 2z m230 0
c14 -12 16 -64 2 -73 -6 -4 -10 6 -10 23 0 65 -60 66 -71 1 -6 -35 -15 -26
-21 21 -2 15 -11 26 -22 28 -22 5 -36 -13 -36 -45 0 -13 -4 -23 -10 -23 -5 0
-10 18 -10 40 l0 39 83 0 c45 -1 88 -6 95 -11z m72 -28 c0 -22 -4 -40 -10 -40
-5 0 -10 18 -10 40 0 22 5 40 10 40 6 0 10 -18 10 -40z m134 34 c18 -7 23 -74
6 -74 -5 0 -10 11 -10 24 0 34 -23 51 -48 35 -11 -7 -18 -18 -15 -25 2 -7 0
-21 -6 -31 -8 -14 -10 -9 -11 30 0 47 0 47 34 47 19 0 41 -3 50 -6z m166 -48
c0 -50 -2 -54 -30 -66 -19 -8 -40 -9 -57 -4 -27 8 -26 8 12 12 52 4 71 22 24
22 -48 0 -73 27 -60 64 9 23 16 26 61 26 l50 0 0 -54z m106 23 l16 -31 21 33
c18 29 21 31 25 14 2 -10 -1 -21 -7 -23 -6 -2 -11 -9 -11 -17 0 -18 -23 -35
-36 -27 -11 7 -44 65 -44 77 0 16 22 1 36 -26z m149 24 c-35 -9 -37 -20 -6
-31 33 -12 38 -21 19 -40 -15 -15 -72 -16 -63 -2 3 6 15 10 26 10 10 0 19 5
19 10 0 6 -9 10 -19 10 -23 0 -35 15 -27 35 3 9 18 15 38 14 21 -1 26 -3 13
-6z m397 -25 c2 -28 7 -33 28 -33 21 0 26 5 28 33 2 17 8 32 13 32 6 0 9 -17
7 -37 -2 -31 -8 -39 -30 -47 -42 -15 -78 8 -78 51 0 45 28 45 32 1z m491 18
c52 -40 -32 -99 -94 -66 -24 13 -25 56 -1 69 24 14 74 13 95 -3z m69 -18 c2
-28 7 -33 28 -33 21 0 26 5 28 33 4 40 32 45 32 5 0 -35 -27 -63 -60 -63 -35
0 -50 17 -50 57 0 43 18 43 22 1z m216 20 c18 -18 15 -68 -3 -68 -10 0 -15 10
-15 30 0 34 -22 49 -45 30 -8 -7 -15 -23 -15 -36 0 -13 -4 -24 -10 -24 -5 0
-10 18 -10 40 l0 40 43 0 c24 0 48 -5 55 -12z m287 5 c-35 -9 -37 -20 -6 -31
33 -12 38 -21 19 -40 -15 -15 -72 -16 -63 -2 3 6 17 10 31 10 13 0 24 5 24 10
0 6 -11 10 -24 10 -28 0 -40 14 -32 35 3 9 18 15 38 14 21 -1 26 -3 13 -6z
m77 -25 c2 -27 8 -34 30 -36 24 -3 27 1 30 30 3 38 21 44 26 10 7 -51 -66 -83
-100 -44 -9 9 -14 28 -13 42 4 32 3 30 14 30 6 0 11 -15 13 -32z m330 24 c-31
-9 -33 -26 -4 -30 17 -3 22 -9 20 -25 -2 -17 -11 -23 -35 -25 -19 -2 -33 1
-33 7 0 6 11 11 25 11 14 0 25 5 25 10 0 6 -11 10 -24 10 -13 0 -26 6 -29 13
-8 25 6 37 42 36 29 -1 31 -2 13 -7z m121 1 c-41 -5 -60 -27 -43 -48 7 -8 23
-15 36 -15 13 0 24 -4 24 -10 0 -13 -46 -13 -71 0 -24 13 -25 56 -1 69 9 6 33
10 52 9 l35 -1 -32 -4z m107 -6 c-14 -7 -26 -23 -28 -37 -7 -47 -22 -45 -22 3
l0 47 38 0 c36 0 36 -1 12 -13z m60 -27 c0 -22 -4 -40 -10 -40 -5 0 -10 11
-10 24 0 13 -3 31 -6 40 -4 11 -1 16 10 16 12 0 16 -10 16 -40z m298 28 c24
-24 13 -37 -35 -40 -45 -3 -46 -4 -18 -12 55 -14 62 -19 36 -24 -40 -7 -70 6
-77 35 -5 19 -2 30 11 40 23 16 67 17 83 1z m107 5 c-25 -6 -35 -21 -35 -50 0
-14 -6 -23 -15 -23 -10 0 -15 10 -15 33 0 42 2 44 48 44 20 0 28 -2 17 -4z
m85 0 c-41 -8 -47 -22 -12 -29 35 -7 45 -37 16 -48 -25 -10 -66 -7 -59 4 3 6
17 10 31 10 14 0 22 4 19 10 -3 6 -15 10 -25 10 -22 0 -34 15 -26 35 3 10 18
15 43 14 28 -1 31 -3 13 -6z m-2565 -63 c3 -5 -1 -10 -9 -10 -9 0 -16 5 -16
10 0 6 4 10 9 10 6 0 13 -4 16 -10z m-2680 -189 c0 -12 7 -26 15 -31 10 -7
-12 -10 -65 -10 -75 1 -79 2 -60 16 14 11 16 18 8 21 -20 7 -15 23 7 23 13 0
20 -7 20 -20 0 -26 22 -35 49 -20 28 14 27 30 -1 30 -19 0 -20 2 -8 10 21 14
35 7 35 -19z m121 12 c-4 -4 -16 -8 -26 -8 -29 0 -25 -19 5 -23 31 -4 23 -22
-10 -22 -15 0 -26 7 -30 20 -9 28 2 40 37 40 17 0 28 -3 24 -7z m4907 -20
c-871 -2 -2295 -2 -3165 0 -871 1 -159 2 1582 2 1741 0 2453 -1 1583 -2z
m-1343 -102 c0 -25 14 -34 40 -26 24 8 27 25 4 25 -8 0 -12 5 -9 10 11 18 34
11 37 -12 4 -30 26 -34 30 -6 2 18 10 24 36 26 19 2 32 -1 32 -8 0 -6 -8 -9
-17 -6 -10 3 -25 1 -33 -4 -12 -8 -13 -11 -1 -19 7 -5 22 -6 34 -3 13 3 18 1
14 -6 -4 -6 -49 -10 -110 -11 -87 0 -99 1 -84 13 21 16 22 26 1 26 -8 0 -12 5
-9 10 11 17 35 11 35 -9z m1520 -6 c0 -26 22 -33 50 -15 12 8 12 10 -3 16 -23
9 -22 24 3 24 14 0 20 -7 20 -24 0 -13 6 -27 13 -29 6 -3 -19 -6 -58 -6 -63 0
-68 1 -51 14 17 13 17 15 3 21 -23 9 -21 24 3 24 15 0 20 -7 20 -25z m160 17
c0 -5 -13 -9 -30 -9 -16 0 -27 4 -24 9 3 4 16 8 30 8 13 0 24 -4 24 -8z m-10
-34 c11 3 12 2 4 -8 -15 -15 -46 -10 -52 8 -3 11 0 12 14 4 11 -5 26 -7 34 -4z
m-2285 -79 c10 -15 2 -19 -23 -12 -12 3 -19 9 -16 14 7 12 31 11 39 -2z m99
-5 c5 -14 4 -15 -8 -5 -17 14 -60 5 -51 -10 4 -5 17 -9 31 -9 13 0 24 -4 24
-10 0 -15 -46 -12 -59 4 -6 7 -9 21 -5 30 8 21 60 21 68 0z m64 9 c-22 -5 -24
-23 -3 -23 9 0 15 -9 15 -25 0 -21 -4 -25 -27 -24 -24 2 -25 2 -5 6 27 5 29
19 3 26 -28 7 -16 47 13 46 17 -1 17 -2 4 -6z m2552 -7 c0 -8 3 -21 6 -30 5
-12 0 -16 -21 -16 -24 0 -26 2 -14 17 11 13 11 17 1 20 -16 6 -6 23 14 23 8 0
14 -6 14 -14z m90 4 c0 -5 -10 -9 -21 -7 -12 1 -24 -4 -26 -10 -3 -8 5 -13 22
-13 15 0 24 -4 20 -10 -9 -15 -45 -12 -51 5 -10 25 4 45 31 45 14 0 25 -4 25
-10z m73 3 c-28 -5 -30 -19 -3 -26 12 -3 20 -14 20 -26 0 -17 -6 -21 -32 -20
-31 2 -31 2 -5 6 30 5 37 23 9 23 -25 0 -31 7 -25 31 4 13 13 19 32 18 23 -2
24 -2 4 -6z m-2858 -43 c4 -6 -7 -10 -24 -10 -17 0 -31 5 -31 10 0 6 11 10 24
10 14 0 28 -4 31 -10z m905 -90 l0 -100 520 0 520 0 0 100 0 100 223 -2 222
-3 0 -98 0 -97 73 0 72 0 0 45 0 45 228 -2 227 -3 3 -42 3 -43 254 0 c158 0
256 -4 260 -10 4 -7 -83 -10 -254 -10 l-261 0 0 -215 0 -215 261 0 c171 0 258
-3 254 -10 -4 -6 -102 -10 -261 -10 l-254 0 2 -212 3 -213 260 -5 260 -5 -260
-5 -260 -5 -3 -212 -2 -213 260 0 c172 0 259 -3 255 -10 -4 -6 -102 -10 -261
-10 l-254 0 0 -215 0 -215 268 -2 267 -2 -265 -6 -265 -5 -3 -212 -2 -213 260
0 c167 0 260 -4 260 -10 0 -7 -1060 -10 -3160 -10 -2100 0 -3160 3 -3160 10 0
6 95 10 265 10 l265 0 0 215 0 215 -272 2 -273 3 273 2 272 3 0 215 0 215
-259 0 c-163 0 -262 4 -266 10 -4 7 85 10 259 10 l266 0 0 215 0 215 -267 2
-268 3 268 2 267 3 0 215 0 215 -259 0 c-163 0 -262 4 -266 10 -4 7 85 10 259
10 l266 0 0 215 0 215 -266 0 c-174 0 -263 3 -259 10 4 7 455 10 1321 10
l1314 0 0 45 0 45 230 0 230 0 0 -45 0 -45 65 0 65 0 0 100 0 100 240 0 240 0
0 -100z m-3035 19 c10 -15 2 -19 -23 -12 -12 3 -19 9 -16 14 7 12 31 11 39 -2z
m92 0 c8 -8 17 -8 31 0 26 14 52 14 52 1 0 -5 -6 -7 -12 -5 -7 3 -20 0 -28 -5
-13 -9 -13 -11 0 -20 8 -5 21 -8 28 -5 6 2 12 0 12 -5 0 -18 -33 -10 -70 15
-22 15 -44 23 -53 19 -35 -13 -12 -31 32 -25 7 2 10 -2 6 -8 -9 -16 -52 -13
-59 4 -14 37 33 62 61 34z m-82 -39 c4 -6 -7 -10 -27 -10 -25 0 -29 3 -18 10
19 13 37 13 45 0z m-1045 -84 c0 -13 6 -27 13 -29 6 -3 -6 -6 -28 -6 -32 0
-36 2 -22 10 21 12 22 29 1 29 -8 0 -12 5 -9 10 3 6 15 10 26 10 13 0 19 -7
19 -24z m80 13 c0 -5 -4 -8 -8 -5 -4 2 -14 1 -21 -4 -17 -10 -4 -33 15 -26 8
3 14 1 14 -4 0 -6 -11 -10 -25 -10 -20 0 -25 5 -25 23 0 13 3 27 7 30 10 11
43 8 43 -4z m115 1 c4 -6 -7 -10 -25 -10 -21 0 -30 -4 -27 -12 2 -7 13 -13 25
-13 11 0 24 -4 28 -8 4 -4 -7 -7 -24 -7 -35 0 -46 12 -37 40 7 21 49 28 60 10z
m-115 -435 c0 -25 23 -35 35 -15 8 12 65 13 65 1 0 -5 -8 -7 -17 -5 -10 2 -25
0 -33 -6 -12 -8 -13 -11 -1 -19 7 -5 22 -6 34 -3 14 3 18 1 13 -6 -9 -16 -41
-15 -66 1 -17 10 -22 9 -29 -1 -10 -17 -43 -12 -49 6 -3 11 0 12 16 3 14 -7
23 -8 27 -1 3 6 -4 14 -17 19 -17 7 -19 10 -5 10 24 1 21 21 -4 21 -11 0 -17
5 -14 10 3 6 15 10 26 10 14 0 19 -7 19 -25z m-7 -435 c-30 -12 -29 -18 3 -31
21 -7 31 -6 44 6 19 17 46 20 55 6 3 -5 -6 -11 -20 -13 -31 -4 -34 -22 -5 -26
23 -4 27 -22 5 -22 -8 0 -24 6 -35 12 -15 10 -22 10 -32 0 -14 -14 -48 -16
-48 -2 0 6 9 10 20 10 11 0 20 5 20 11 0 7 -10 9 -25 7 -14 -3 -27 -2 -30 2
-8 14 27 50 48 49 l22 0 -22 -9z m101 -468 c3 -4 -11 -9 -30 -9 -18 -1 -31 3
-28 8 7 11 51 12 58 1z m-10 -34 c16 4 18 2 10 -7 -15 -16 -56 -10 -62 8 -3
10 0 11 13 3 10 -5 27 -7 39 -4z m-70 -7 c2 -3 -2 -12 -10 -19 -8 -7 -14 -8
-14 -2 0 5 -12 10 -26 10 -14 0 -23 4 -19 9 6 10 63 12 69 2z m-19 -417 c1
-10 4 -25 8 -32 6 -9 -1 -12 -25 -12 l-33 1 23 18 c12 11 22 22 22 25 0 3 -10
6 -22 6 -19 0 -20 2 -8 10 21 13 35 7 35 -16z m105 7 c0 -3 -16 -6 -36 -7 -31
0 -34 1 -20 12 16 11 56 8 56 -5z m-24 -31 c8 0 14 -4 14 -10 0 -16 -36 -11
-51 7 -12 15 -12 16 4 10 10 -4 25 -7 33 -7z m20 -412 c5 -7 1 -9 -13 -6 -28
7 -54 -8 -34 -21 7 -5 22 -6 34 -3 14 3 18 1 13 -6 -12 -20 -54 -14 -61 8 -3
11 -3 24 0 30 8 14 52 13 61 -2z m3098 -127 c3 -5 -6 -11 -19 -14 -27 -5 -44
8 -23 16 21 8 36 8 42 -2z m-2074 -47 c0 -31 -3 -34 -27 -33 -17 1 -21 3 -10
6 12 3 17 15 17 39 0 21 4 33 10 29 6 -3 10 -22 10 -41z m4246 33 c2 -7 -2
-27 -11 -43 l-15 -29 0 43 c0 40 15 57 26 29z m80 -3 c-3 -9 -6 -20 -6 -25 0
-4 -7 -6 -15 -3 -9 4 -15 0 -15 -10 0 -9 -7 -16 -15 -16 -21 0 -19 8 12 41 31
32 49 38 39 13z m295 -4 c15 0 19 -7 18 -32 -1 -24 -3 -27 -6 -10 -2 12 -11
22 -18 22 -7 0 -16 -10 -18 -22 -2 -13 -5 -3 -5 22 0 25 2 39 5 33 2 -7 13
-13 24 -13z m-2369 -14 c16 -22 3 -41 -30 -44 -31 -3 -32 -2 -32 33 0 34 1 35
28 29 15 -4 30 -12 34 -18z m-2163 -16 c10 -30 9 -30 -25 -30 -37 0 -49 25
-17 37 15 6 15 7 -3 14 -16 6 -15 8 8 8 20 1 28 -6 37 -29z m86 20 c4 -6 -5
-10 -19 -10 -20 0 -26 -5 -27 -22 -1 -22 -1 -22 -8 2 -5 14 -6 28 -4 33 6 11
51 9 58 -3z m175 -20 c0 -27 -3 -30 -29 -30 -40 0 -48 17 -15 32 l27 13 -24 6
c-21 6 -20 7 9 8 29 1 32 -2 32 -29z m80 18 c0 -6 -3 -8 -6 -5 -4 3 -15 2 -25
-4 -18 -9 -26 0 -12 14 11 11 43 8 43 -5z m56 -23 c-9 -14 -21 -23 -26 -20 -4
3 1 16 13 29 27 31 35 25 13 -9z m1677 21 c7 -18 -1 -26 -27 -27 -18 -1 -18
-2 4 -9 l25 -8 -26 -1 c-28 -1 -42 18 -33 44 8 19 50 20 57 1z m143 -1 c-21
-16 -32 -13 -21 4 3 6 14 11 23 11 15 -1 15 -2 -2 -15z m193 -15 c10 -29 9
-30 -24 -30 -42 0 -52 14 -24 33 15 11 17 16 7 20 -7 3 -4 6 9 6 15 1 24 -8
32 -29z m91 23 c0 -5 5 -15 10 -23 8 -13 11 -12 24 5 15 19 15 18 5 -12 -6
-17 -17 -34 -25 -37 -9 -3 -12 -1 -9 4 4 6 3 20 0 31 -6 16 -13 20 -36 17 -20
-3 -29 0 -29 9 0 14 60 19 60 6z m1828 -25 c3 -25 0 -28 -27 -28 -38 0 -47 15
-20 33 20 14 20 15 2 20 -10 3 -4 5 12 4 25 -2 31 -7 33 -29z m115 17 c-18 -8
-33 -16 -33 -19 0 -3 15 -10 33 -15 l32 -10 -35 2 c-28 2 -36 7 -38 24 -3 19
-6 21 -23 13 -15 -8 -19 -7 -19 4 0 10 14 14 58 14 l57 1 -32 -14z m-2463 -5
c0 -5 -11 -10 -25 -10 -14 0 -25 5 -25 10 0 6 11 10 25 10 14 0 25 -4 25 -10z
m-1810 -32 c0 -5 -11 -8 -25 -8 -14 0 -25 3 -25 8 0 4 11 7 25 7 14 0 25 -3
25 -7z m2150 2 c0 -5 -15 -10 -32 -9 -31 1 -32 1 -8 9 35 11 40 11 40 0z m54
-185 c11 -8 16 -18 11 -22 -4 -5 -10 -2 -12 5 -6 15 -45 16 -61 0 -17 -17 4
-48 33 -48 13 0 26 5 28 10 3 6 4 5 3 -2 -4 -21 -58 -22 -73 -2 -17 24 -17 30
7 54 24 24 38 25 64 5z m244 -15 c7 0 20 -7 28 -15 14 -13 14 -17 0 -30 -8 -8
-26 -15 -40 -15 -24 0 -26 4 -26 42 0 33 3 39 12 30 7 -7 18 -12 26 -12z m392
-26 c0 -31 -3 -34 -29 -34 -17 0 -33 5 -36 10 -11 18 6 50 26 50 10 0 19 5 19
11 0 5 5 7 10 4 6 -3 10 -22 10 -41z m-1772 -1 c3 -32 2 -33 -37 -33 -40 0
-41 1 -41 36 0 35 1 35 38 32 34 -3 37 -6 40 -35z m1012 2 l0 -35 -55 0 -55 0
0 35 0 35 55 0 55 0 0 -35z m287 27 c9 -6 7 -11 -7 -20 -12 -7 -20 -8 -20 -2
0 5 -8 10 -17 11 -15 0 -15 2 2 9 26 11 28 11 42 2z m-1137 -10 c0 -5 -13 -9
-30 -10 -16 0 -30 4 -30 9 0 5 14 9 30 9 17 0 30 -4 30 -8z m90 -1 c-14 -4
-25 -13 -25 -21 0 -8 11 -17 25 -21 l25 -7 -26 -1 c-35 -1 -56 23 -39 44 7 8
24 15 39 14 l26 -1 -25 -7z m97 -6 c12 -12 13 -19 3 -30 -14 -16 -60 -21 -60
-6 0 5 9 7 21 4 17 -5 20 -2 17 13 -2 11 -11 18 -21 18 -9 -1 -17 2 -17 7 0
15 40 10 57 -6z m132 -17 c-1 -30 -2 -31 -8 -8 -6 21 -13 25 -46 25 -33 0 -40
-4 -46 -25 -6 -23 -7 -22 -8 8 l-1 32 55 0 55 0 -1 -32z m141 21 c0 -6 -8 -8
-19 -4 -16 5 -20 0 -23 -22 -3 -28 -4 -28 -9 5 -5 30 -4 32 23 32 15 0 28 -5
28 -11z m90 -29 c0 -43 -16 -58 -47 -45 -16 7 -14 9 7 15 l25 7 -24 4 c-14 2
-26 10 -29 17 -3 11 0 12 18 2 15 -8 25 -9 32 -2 15 15 -1 34 -23 27 -11 -4
-19 -2 -19 4 0 6 14 11 30 11 28 0 30 -2 30 -40z m780 25 c10 -12 10 -18 0
-30 -13 -16 -60 -21 -60 -7 0 5 10 8 23 8 13 -1 22 5 22 14 0 10 -8 14 -22 13
-13 -2 -23 2 -23 7 0 16 46 12 60 -5z m190 4 c0 -6 -9 -8 -20 -4 -16 5 -20 2
-20 -19 0 -14 -4 -26 -10 -26 -5 0 -10 14 -10 30 0 27 3 30 30 30 17 0 30 -5
30 -11z m-440 -40 c0 -5 -11 -9 -25 -9 -33 0 -33 15 0 16 14 1 25 -2 25 -7z
m60 1 c12 -8 11 -10 -7 -10 -13 0 -23 5 -23 10 0 13 11 13 30 0z m290 -1 c0
-5 -11 -9 -25 -9 -33 0 -33 15 0 16 14 1 25 -2 25 -7z"/>
<path d="M3502 3481 c-23 -14 -10 -46 21 -49 31 -4 46 20 27 43 -14 17 -29 19
-48 6z"/>
<path d="M4090 3475 c-19 -23 -4 -45 29 -45 32 0 48 24 30 46 -15 18 -43 18
-59 -1z"/>
<path d="M4534 3475 c-10 -25 4 -45 31 -45 30 0 43 24 25 45 -16 19 -49 19
-56 0z"/>
<path d="M5080 3475 c-19 -23 -4 -45 30 -45 18 0 33 6 36 15 8 19 -13 45 -36
45 -10 0 -23 -7 -30 -15z"/>
<path d="M3048 3509 c-24 -13 -23 -56 1 -69 44 -23 111 -1 111 37 0 34 -73 55
-112 32z"/>
<path d="M1912 3481 c-8 -5 -12 -17 -10 -27 4 -25 65 -33 74 -10 13 33 -32 58
-64 37z"/>
<path d="M2506 3475 c-16 -12 -17 -17 -6 -30 14 -17 56 -20 65 -5 10 17 -5 50
-23 50 -9 0 -26 -7 -36 -15z"/>
<path d="M3650 3475 c-7 -8 -10 -22 -6 -31 9 -23 70 -15 74 10 7 33 -45 49
-68 21z"/>
<path d="M5237 3484 c-14 -14 -6 -24 19 -24 16 0 24 5 22 13 -5 14 -31 21 -41
11z"/>
<path d="M1520 2565 l0 -215 65 0 65 0 0 105 0 105 235 0 235 0 0 -105 0 -105
525 0 525 0 0 215 0 215 -825 0 -825 0 0 -215z m335 135 c4 -6 -7 -10 -26 -10
-24 0 -30 -3 -22 -11 14 -14 67 -3 84 17 13 16 49 19 49 5 0 -5 -9 -11 -20
-13 -31 -5 -28 -22 6 -30 22 -6 19 -6 -14 -4 -34 3 -44 0 -52 -15 -7 -12 -21
-19 -38 -18 -27 0 -27 1 -4 11 27 13 29 28 3 28 -23 0 -34 23 -18 39 14 14 44
14 52 1z"/>
<path d="M3630 2565 l0 -215 65 0 65 0 0 215 0 215 -65 0 -65 0 0 -215z"/>
<path d="M4240 2565 l0 -215 520 0 520 0 0 215 0 215 -520 0 -520 0 0 -215z"/>
<path d="M5730 2565 l0 -215 70 0 70 0 0 215 0 215 -70 0 -70 0 0 -215z"/>
<path d="M1520 2115 l0 -215 65 0 65 0 0 215 0 215 -65 0 -65 0 0 -215z"/>
<path d="M2122 2118 l3 -213 523 -3 522 -2 0 215 0 215 -525 0 -525 0 2 -212z"/>
<path d="M3630 2115 l0 -215 65 0 65 0 0 215 0 215 -65 0 -65 0 0 -215z"/>
<path d="M4240 2115 l0 -215 520 0 520 0 0 215 0 215 -520 0 -520 0 0 -215z"/>
<path d="M5727 2118 l2 -213 71 -3 70 -3 0 216 0 215 -72 0 -73 0 2 -212z"/>
<path d="M1520 1675 l0 -215 65 0 65 0 0 215 0 215 -65 0 -65 0 0 -215z"/>
<path d="M2127 1883 c-4 -3 -7 -100 -7 -215 l0 -208 525 0 525 0 0 215 0 215
-518 0 c-285 0 -522 -3 -525 -7z"/>
<path d="M3630 1675 l0 -215 65 0 65 0 0 215 0 215 -65 0 -65 0 0 -215z"/>
<path d="M4240 1675 l0 -215 520 0 520 0 0 215 0 215 -520 0 -520 0 0 -215z"/>
<path d="M5730 1888 c0 -2 -1 -99 -3 -216 l-2 -212 73 0 72 0 0 215 0 215 -70
0 c-38 0 -70 -1 -70 -2z"/>
<path d="M1520 1225 l0 -215 65 0 65 0 0 215 0 215 -65 0 -65 0 0 -215z"/>
<path d="M2122 1228 l3 -213 523 -3 522 -2 0 215 0 215 -525 0 -525 0 2 -212z"/>
<path d="M3630 1225 l0 -215 65 0 65 0 0 215 0 215 -65 0 -65 0 0 -215z"/>
<path d="M4240 1225 l0 -215 520 0 520 0 0 215 0 215 -520 0 -520 0 0 -215z"/>
<path d="M5730 1225 l0 -215 70 0 70 0 0 215 0 215 -70 0 -70 0 0 -215z"/>
<path d="M1520 785 l0 -215 65 0 65 0 0 215 0 215 -65 0 -65 0 0 -215z"/>
<path d="M2127 993 c-4 -3 -7 -100 -7 -215 l0 -208 525 0 525 0 0 215 0 215
-518 0 c-285 0 -522 -3 -525 -7z"/>
<path d="M3630 785 l0 -215 65 0 65 0 0 215 0 215 -65 0 -65 0 0 -215z"/>
<path d="M4240 785 l0 -215 520 0 520 0 0 215 0 215 -520 0 -520 0 0 -215z"/>
<path d="M5730 998 c0 -2 -1 -99 -3 -216 l-2 -212 73 0 72 0 0 215 0 215 -70
0 c-38 0 -70 -1 -70 -2z"/>
<path d="M3575 400 c-8 -12 20 -24 35 -15 5 3 10 10 10 16 0 12 -37 12 -45 -1z"/>
<path d="M1418 383 c7 -3 16 -2 19 1 4 3 -2 6 -13 5 -11 0 -14 -3 -6 -6z"/>
<path d="M4055 160 c-4 -7 -3 -16 2 -21 12 -12 45 0 40 15 -5 15 -34 19 -42 6z"/>
<path d="M4421 161 c-16 -10 -6 -31 15 -31 8 0 14 9 14 20 0 22 -7 25 -29 11z"/>
</g>
</svg>
